<svg width="74" height="111" viewBox="0 0 74 111" fill="none" xmlns="http://www.w3.org/2000/svg">
<path d="M0 3.32073V111H71.7862L50.2503 49.9817C52.045 17.6779 32.3038 10.4993 25.1252 5.11534C19.3823 0.808169 5.98218 3.32073 0 3.32073Z" fill="#4F8EE7"/>
<path fill-rule="evenodd" clip-rule="evenodd" d="M6.60721 5.82237C3.64946 5.84874 1.3916 6.18244 -6.10352e-05 6.63443V1.46605C1.92712 1.04155 4.19618 0.843663 6.56264 0.822565C10.4877 0.787572 15.0657 1.23859 19.6255 2.24464C24.1787 3.24922 28.8047 4.82722 32.7772 7.09813C36.7391 9.36294 40.2032 12.4063 42.171 16.4055C45.6336 23.4423 51.2885 41.2551 57.1357 60.1903C58.183 63.5817 59.2384 67.0162 60.2913 70.4425L60.2926 70.4468L60.2938 70.4505C64.948 85.596 69.5536 100.583 73.1919 111H67.9007C64.3208 100.578 59.9144 86.2384 55.4995 71.8713L55.4993 71.8707L55.4977 71.8654C54.448 68.4496 53.3979 65.0322 52.3583 61.6656C46.4409 42.503 40.9249 25.1978 37.6847 18.6131C36.3013 15.8015 33.726 13.3998 30.2958 11.4389C26.8763 9.48417 22.7574 8.05588 18.5483 7.12721C14.3458 6.20001 10.144 5.79083 6.60721 5.82237Z" fill="#82AEF7"/>
</svg>
