<svg xmlns="http://www.w3.org/2000/svg" xmlns:xlink="http://www.w3.org/1999/xlink" viewBox="0 0 1029.36 889.65"><defs><style>.cls-1,.cls-26,.cls-7{fill:#aecfe2;}.cls-11,.cls-13,.cls-18,.cls-2,.cls-24,.cls-37{fill:none;}.cls-3{fill:#aecfe1;}.cls-4{fill:#003554;}.cls-5{fill:#7fbbdd;}.cls-6{fill:#fff;}.cls-13,.cls-7{stroke:#aecfe2;}.cls-11,.cls-13,.cls-18,.cls-24,.cls-37,.cls-7{stroke-miterlimit:10;}.cls-8{fill:#0b6ca3;}.cls-9{clip-path:url(#clip-path);}.cls-10{clip-path:url(#clip-path-2);}.cls-11{stroke:#ff2929;stroke-width:4px;}.cls-12{clip-path:url(#clip-path-3);}.cls-14{fill:#ffc853;}.cls-15{clip-path:url(#clip-path-4);}.cls-16{clip-path:url(#clip-path-5);}.cls-17{clip-path:url(#clip-path-6);}.cls-18{stroke:#fff;}.cls-18,.cls-24,.cls-37{stroke-linecap:round;stroke-width:2px;}.cls-19{fill:#185d84;}.cls-20{clip-path:url(#clip-path-7);}.cls-21{clip-path:url(#clip-path-8);}.cls-22{clip-path:url(#clip-path-9);}.cls-23{fill:#ffad00;}.cls-24{stroke:#0b6ca3;opacity:0.42;}.cls-25{clip-path:url(#clip-path-10);}.cls-26{opacity:0.21;}.cls-27{clip-path:url(#clip-path-11);}.cls-28{clip-path:url(#clip-path-12);}.cls-29{clip-path:url(#clip-path-13);}.cls-30{clip-path:url(#clip-path-14);}.cls-31{clip-path:url(#clip-path-15);}.cls-32{clip-path:url(#clip-path-16);}.cls-33{clip-path:url(#clip-path-17);}.cls-34{clip-path:url(#clip-path-18);}.cls-35{clip-path:url(#clip-path-19);}.cls-36{clip-path:url(#clip-path-20);}.cls-37{stroke:#185d84;}.cls-38{fill:#ff2929;}.cls-39{clip-path:url(#clip-path-21);}</style><clipPath id="clip-path" transform="translate(14.44 30.83)"><polygon class="cls-1" points="8.3 583.21 605.17 792.15 907.81 676.75 307.98 469.6 8.3 583.21"/></clipPath><clipPath id="clip-path-2" transform="translate(14.44 30.83)"><polyline class="cls-2" points="57.67 600.49 394.11 472.83 310.45 446.96 -0.78 573.94 28.15 625.68 57.67 600.49"/></clipPath><clipPath id="clip-path-3" transform="translate(14.44 30.83)"><polyline class="cls-7" points="550.3 772.94 893.6 642.96 1013.86 746.36 556.84 858.19 550.3 772.94"/></clipPath><clipPath id="clip-path-4" transform="translate(14.44 30.83)"><path class="cls-5" d="M390.73,282.83v235a3.89,3.89,0,0,0,2.74,3.72L411,526.94a3.89,3.89,0,0,0,2.86-.23l10.22-5a3.91,3.91,0,0,0,2.18-3.5V282.83Z"/></clipPath><clipPath id="clip-path-5" transform="translate(14.44 30.83)"><path class="cls-5" d="M495.33,322.16v235a3.89,3.89,0,0,0,2.73,3.71l17.54,5.44a3.86,3.86,0,0,0,2.87-.22l10.21-5a3.89,3.89,0,0,0,2.19-3.49V322.16Z"/></clipPath><clipPath id="clip-path-6" transform="translate(14.44 30.83)"><path class="cls-4" d="M305.35,571.21s-2.17-1.4-7.74-2c-4.34-.5-17.79-.26-22.13-.38s-25,1.78-31.41,9.63-2.8,18.84,2.56,21.64,46.72,14.05,58.72,15.71,22.72-.64,25.28-5.24,3.32-15.06-2.56-29.62c0,0-13.82,3.9-20-.51C305,578.23,300.76,576.57,305.35,571.21Z"/></clipPath><clipPath id="clip-path-7" transform="translate(14.44 30.83)"><path class="cls-5" d="M427.48,471s-17.53,4.76-23.32,10.38-5.62,20.47-.51,24.11c4.69,3.34,126.38,45.29,146.08,52.07a8,8,0,0,0,5.35,0l122.45-44.79a8.06,8.06,0,0,0,4.8-4.79c2.25-6.16,5.58-18.94-1.49-27.57-9.62-11.75-166.89.25-166.89.25Z"/></clipPath><clipPath id="clip-path-8" transform="translate(14.44 30.83)"><path class="cls-5" d="M119.65,366.16l148.65,52a7.51,7.51,0,0,0,5.14-.07l185.31-70.55c1.68-.64,71.26-43.83,72.12-45.41l-30.82-27.3a7.51,7.51,0,0,0-2.32-9.72l-18.42-12.82a7.37,7.37,0,0,0-1.64-.87l-66.55-25.16a7.56,7.56,0,0,0-5.24,0L119.54,331.45a7.5,7.5,0,0,0-4.91,7v20.59A7.49,7.49,0,0,0,119.65,366.16Z"/></clipPath><clipPath id="clip-path-9" transform="translate(14.44 30.83)"><path class="cls-6" d="M294.21,326.9l32.29,13a2.43,2.43,0,0,0,1.8,0L437.14,298a2.46,2.46,0,0,0,1.57-2.3V288.9a2.45,2.45,0,0,0-1.68-2.33l-34.61-11.43a2.5,2.5,0,0,0-1.62,0L294.27,314.76a2.46,2.46,0,0,0-1.6,2.3v7.56A2.47,2.47,0,0,0,294.21,326.9Z"/></clipPath><clipPath id="clip-path-10" transform="translate(14.44 30.83)"><path class="cls-5" d="M536.16,515.34l27.3-172.18a11.19,11.19,0,0,1,7.33-8.81l120.58-42.63A15.65,15.65,0,0,1,712,308.93l-26.3,165.69a10.67,10.67,0,0,1-6.89,8.35l-121,43.76a6.46,6.46,0,0,1-4.4,0L540,521.81A5.88,5.88,0,0,1,536.16,515.34Z"/></clipPath><clipPath id="clip-path-11" transform="translate(14.44 30.83)"><path class="cls-3" d="M487.25,158.55a247.49,247.49,0,0,0-1.56,24.82c0,11.28,2,25.59,5.25,29.93s12.7,6.75,33.19-2.44c0,0,17.09,0,24.79-9.8s17.37-20.8,15.76-42.72-26.58-31.29-33.17-31.1-19.36,4.57-25.15,4.68-9.45-1-13.78-2.29S485,128,484.71,131.4a27.38,27.38,0,0,0,.48,7s-10.57-4-12.45,4.34S478.72,156.28,487.25,158.55Z"/></clipPath><clipPath id="clip-path-12" transform="translate(14.44 30.83)"><path class="cls-4" d="M411.4,544.67s-1.61,10.1,5.18,10.62c8.32.64,12.86-.77,12.86-.77s4.78,14.84,3.11,22.38c-.73,3.29-3.82,7.57-10.58,7.59-8.53,0-43.82-12-49.49-14.79-9.13-4.44-9.36-10.33-9.12-15.37s4.54-12.9,16.33-13.68c8.63-.57,19.71,2.05,22.09,2.05s4-1.25,6.72-.79C412.59,542.62,411.4,544.67,411.4,544.67Z"/></clipPath><clipPath id="clip-path-13" transform="translate(14.44 30.83)"><path class="cls-5" d="M249.39,411.53V646.47a3.89,3.89,0,0,0,2.74,3.72l17.53,5.44a4,4,0,0,0,2.87-.22l10.21-5a3.9,3.9,0,0,0,2.19-3.5V411.53Z"/></clipPath><clipPath id="clip-path-14" transform="translate(14.44 30.83)"><path class="cls-5" d="M141.39,371.49v235a3.88,3.88,0,0,0,2.74,3.71l17.53,5.44a3.86,3.86,0,0,0,2.87-.22l10.21-5a3.89,3.89,0,0,0,2.19-3.49V371.49Z"/></clipPath><clipPath id="clip-path-15" transform="translate(14.44 30.83)"><path class="cls-5" d="M175.94,310.72l-56.4,20.73a7.5,7.5,0,0,0-4.91,7v20.59a7.49,7.49,0,0,0,5,7.08l148.65,52a7.51,7.51,0,0,0,5.14-.07l70.48-26.83Z"/></clipPath><clipPath id="clip-path-16" transform="translate(14.44 30.83)"><path class="cls-5" d="M660.46,215l209.28,74.11A7.61,7.61,0,0,0,875,289l66.55-25.86a7.61,7.61,0,0,0,4.86-7.1v-18a7.61,7.61,0,0,0-5.11-7.19L732.55,158a7.62,7.62,0,0,0-5.2.06l-67,25.34a7.59,7.59,0,0,0-4.93,7.12v17.27A7.63,7.63,0,0,0,660.46,215Z"/></clipPath><clipPath id="clip-path-17" transform="translate(14.44 30.83)"><path class="cls-2" d="M653.51,184.15l216.3,74.44a12.47,12.47,0,0,0,8.54-.16l72.18-27.81,41.36,63.83L781.51,331.21,624.16,217.15,656.23,187"/></clipPath><clipPath id="clip-path-18" transform="translate(14.44 30.83)"><polygon class="cls-1" points="263.39 273.25 232.59 286.02 232.59 296.23 276.25 313.08 353.61 282.19 353.61 273.25 305.1 257.43 263.39 273.25"/></clipPath><clipPath id="clip-path-19" transform="translate(14.44 30.83)"><path class="cls-5" d="M167.62,87.74l25.78,170.4a12.14,12.14,0,0,0,16.27,9.54l194.75-73.41a5,5,0,0,0,3.21-5.48L382.38,23.56a6.15,6.15,0,0,0-3.78-4.77l-13.08-5.28a6.13,6.13,0,0,0-4.4-.08L170.75,82.49A4.82,4.82,0,0,0,167.62,87.74Z"/></clipPath><clipPath id="clip-path-20" transform="translate(14.44 30.83)"><polygon class="cls-6" points="199.57 97.91 219.31 247.98 392.3 184.53 370.46 33 199.57 97.91"/></clipPath><clipPath id="clip-path-21" transform="translate(14.44 30.83)"><polygon class="cls-8" points="771.29 158 771.29 209.75 815.2 223.75 827.8 218.94 827.8 163.79 786.74 151.51 771.29 158"/></clipPath></defs><g id="Слой_9" data-name="Слой 9"><polygon class="cls-1" points="22.74 614.04 619.61 822.98 922.25 707.57 322.42 500.43 22.74 614.04"/><g class="cls-9"><g class="cls-10"><line class="cls-11" x1="0.7" y1="600.26" x2="116.94" y2="643.46"/><line class="cls-11" x1="17.45" y1="591.25" x2="133.7" y2="634.45"/><line class="cls-11" x1="34.21" y1="582.24" x2="150.46" y2="625.44"/><line class="cls-11" x1="50.97" y1="573.23" x2="167.21" y2="616.43"/><line class="cls-11" x1="67.72" y1="564.22" x2="183.97" y2="607.42"/><line class="cls-11" x1="84.48" y1="555.21" x2="200.73" y2="598.41"/><line class="cls-11" x1="101.23" y1="546.2" x2="217.48" y2="589.4"/><line class="cls-11" x1="117.99" y1="537.19" x2="234.24" y2="580.39"/><line class="cls-11" x1="134.75" y1="528.18" x2="250.99" y2="571.38"/><line class="cls-11" x1="151.5" y1="519.17" x2="267.75" y2="562.37"/><line class="cls-11" x1="168.26" y1="510.16" x2="284.51" y2="553.36"/><line class="cls-11" x1="185.02" y1="501.15" x2="309.64" y2="547.46"/><line class="cls-11" x1="201.77" y1="492.14" x2="334.32" y2="541.4"/><line class="cls-11" x1="218.53" y1="483.13" x2="347.85" y2="531.19"/><line class="cls-11" x1="235.28" y1="474.12" x2="366.82" y2="523"/></g><polyline class="cls-1" points="564.74 803.77 908.04 673.79 1028.29 777.19 571.28 889.02 564.74 803.77"/><g class="cls-12"><line class="cls-11" x1="560.88" y1="797.8" x2="650.71" y2="828.92"/><line class="cls-11" x1="577.06" y1="788.07" x2="666.9" y2="819.2"/><line class="cls-11" x1="593.25" y1="778.35" x2="683.08" y2="809.47"/><line class="cls-11" x1="609.43" y1="768.62" x2="699.27" y2="799.75"/><line class="cls-11" x1="632.56" y1="762.86" x2="722.39" y2="793.98"/><line class="cls-11" x1="652.87" y1="755.54" x2="742.71" y2="786.66"/><line class="cls-11" x1="673.19" y1="748.21" x2="763.03" y2="779.34"/><line class="cls-11" x1="693.51" y1="740.89" x2="783.35" y2="772.02"/><line class="cls-11" x1="713.83" y1="733.57" x2="803.67" y2="764.69"/><line class="cls-11" x1="734.15" y1="726.25" x2="823.98" y2="757.37"/><line class="cls-11" x1="754.47" y1="718.92" x2="844.3" y2="750.05"/><line class="cls-11" x1="774.79" y1="711.6" x2="864.62" y2="742.73"/><line class="cls-11" x1="795.11" y1="704.28" x2="884.94" y2="735.4"/><line class="cls-11" x1="815.42" y1="696.96" x2="905.26" y2="728.08"/><line class="cls-11" x1="835.74" y1="689.63" x2="925.58" y2="720.76"/><line class="cls-11" x1="856.06" y1="682.31" x2="945.9" y2="713.44"/></g><polyline class="cls-13" points="564.74 803.77 908.04 673.79 1028.29 777.19 571.28 889.02 564.74 803.77"/></g></g><g id="Слой_5" data-name="Слой 5"><polygon class="cls-14" points="427.36 570.69 422.94 584.68 442.47 588.79 449.87 570.69 427.36 570.69"/><polygon class="cls-14" points="326.34 594.38 319.79 602.04 303.19 615.32 328.04 631.32 342.51 611.75 350.34 596.09 326.34 594.38"/><path class="cls-5" d="M390.73,282.83v235a3.89,3.89,0,0,0,2.74,3.72L411,526.94a3.89,3.89,0,0,0,2.86-.23l10.22-5a3.91,3.91,0,0,0,2.18-3.5V282.83Z" transform="translate(14.44 30.83)"/><g class="cls-15"><polygon class="cls-8" points="426.66 321.18 426.66 586.68 491.69 517.9 452.71 290.8 426.66 321.18"/></g><path class="cls-5" d="M495.33,322.16v235a3.89,3.89,0,0,0,2.73,3.71l17.54,5.44a3.86,3.86,0,0,0,2.87-.22l10.21-5a3.89,3.89,0,0,0,2.19-3.49V322.16Z" transform="translate(14.44 30.83)"/><g class="cls-16"><polygon class="cls-8" points="531.26 360.51 531.26 626.01 596.28 557.23 557.3 330.12 531.26 360.51"/></g><path class="cls-4" d="M305.35,571.21s-2.17-1.4-7.74-2c-4.34-.5-17.79-.26-22.13-.38s-25,1.78-31.41,9.63-2.8,18.84,2.56,21.64,46.72,14.05,58.72,15.71,22.72-.64,25.28-5.24,3.32-15.06-2.56-29.62c0,0-13.82,3.9-20-.51C305,578.23,300.76,576.57,305.35,571.21Z" transform="translate(14.44 30.83)"/><g class="cls-17"><path class="cls-6" d="M241.43,583.26a105.48,105.48,0,0,0,43,15.53c25.54,3.32,38.39,4.85,49.62.51s16.77,20.93,16.77,23-111.58,26.29-129.7,25S200.93,575,200.93,575l40.5,8.22" transform="translate(14.44 30.83)"/><path class="cls-18" d="M282.63,579.89s.87-3.68,6.43-13.2" transform="translate(14.44 30.83)"/></g><path class="cls-19" d="M528.52,550.2V623a18,18,0,0,0,28.32,0V552.83Z" transform="translate(14.44 30.83)"/><path class="cls-19" d="M425.1,509.77l-12,27.21a4.33,4.33,0,0,0,2,5.6l14.45,7.23a4.31,4.31,0,0,0,5.68-1.72l17-29.81Z" transform="translate(14.44 30.83)"/><path class="cls-5" d="M427.48,471s-17.53,4.76-23.32,10.38-5.62,20.47-.51,24.11c4.69,3.34,126.38,45.29,146.08,52.07a8,8,0,0,0,5.35,0l122.45-44.79a8.06,8.06,0,0,0,4.8-4.79c2.25-6.16,5.58-18.94-1.49-27.57-9.62-11.75-166.89.25-166.89.25Z" transform="translate(14.44 30.83)"/><g class="cls-20"><path class="cls-1" d="M406.7,479.36,554,532.74l134.12-50,9.71,45.49S554.8,577.46,551,578.42s-191-56.48-191-56.48l9.45-44.17,37.26,1.59" transform="translate(14.44 30.83)"/></g><polygon class="cls-3" points="550.18 236.43 559.7 272.68 532.75 275.75 527.53 236.43 550.18 236.43"/><path class="cls-5" d="M119.65,366.16l148.65,52a7.51,7.51,0,0,0,5.14-.07l185.31-70.55c1.68-.64,71.26-43.83,72.12-45.41l-30.82-27.3a7.51,7.51,0,0,0-2.32-9.72l-18.42-12.82a7.37,7.37,0,0,0-1.64-.87l-66.55-25.16a7.56,7.56,0,0,0-5.24,0L119.54,331.45a7.5,7.5,0,0,0-4.91,7v20.59A7.49,7.49,0,0,0,119.65,366.16Z" transform="translate(14.44 30.83)"/><g class="cls-21"><path class="cls-8" d="M115.31,335.38,267.92,388a16.33,16.33,0,0,0,11-.12l270.78-100.1L491.37,426.7l-426.78.51L95.22,326.62l20.09,8.76" transform="translate(14.44 30.83)"/></g><path class="cls-6" d="M294.21,326.9l32.29,13a2.43,2.43,0,0,0,1.8,0L437.14,298a2.46,2.46,0,0,0,1.57-2.3V288.9a2.45,2.45,0,0,0-1.68-2.33l-34.61-11.43a2.5,2.5,0,0,0-1.62,0L294.27,314.76a2.46,2.46,0,0,0-1.6,2.3v7.56A2.47,2.47,0,0,0,294.21,326.9Z" transform="translate(14.44 30.83)"/><g class="cls-22"><path class="cls-8" d="M292.67,315.89l35.79,12,122.17-46s1,56,1,56.51-129.7,41-129.7,41l-52.6-46.29Z" transform="translate(14.44 30.83)"/></g><path class="cls-1" d="M372.67,311.44s-6.81-10.7-12.6-13.76-19.06,1-27.23,4.09-15,9.53-3.74,11.91,34,12.6,34,12.6Z" transform="translate(14.44 30.83)"/><path class="cls-1" d="M442.53,279.3a39.1,39.1,0,0,0-23.8-6.76c-13.86.78-17.47,12-10.84,13.13s30.42,3.86,33.43,5.79S442.53,279.3,442.53,279.3Z" transform="translate(14.44 30.83)"/><path class="cls-23" d="M466,278.11H444.23a2.72,2.72,0,0,0-2.6,1.91l-2.79,8.89a2.73,2.73,0,0,0,1.38,3.26l22.66,13.17c1.71.85,3.56-2.2,3.75-4.1l2.09-20.12A2.72,2.72,0,0,0,466,278.11Z" transform="translate(14.44 30.83)"/><g id="Слой_6" data-name="Слой 6"><path class="cls-19" d="M490.71,488s-78.12-18.64-83-17.62-13.27,21.15-22,35.09-24.51,34.36-33.19,46.36-20.94,25.53-23.49,26.55-18.9-11-18.64-15.83S325,533.68,334,518.62,355.39,476,358.46,466s11.74-28.85,18.89-32.68S462.88,419,462.88,419l28.49,70.37" transform="translate(14.44 30.83)"/><path class="cls-14" d="M543.22,224.15s-28.93,5.11-45.27,11.91-31.32,30.64-38.47,45.28-21.79,40.17-25.19,44.94c0,0-50.19-12.84-60.61-15.56a3.4,3.4,0,0,0-3.06.7c-2.62,2.23-8.39,7.27-11.53,11.12a2.81,2.81,0,0,0,.67,4.12c12.36,8.08,68.74,44.25,82.36,41.83,15.32-2.72,50.72-47.32,50.72-47.32s-10.21,51.06-16.68,59.92-28.26,29.27-28.26,29.27-3.06,21.11,12.94,46.64,34,45.62,82.38,39.15,56.51-164.77,56.51-164.77-20.76-85.1-25.87-96S560.93,222.79,543.22,224.15Z" transform="translate(14.44 30.83)"/></g><path class="cls-24" d="M538.39,521.74l15,6.13c2.17.88,4.9-.23,7.1-1L680.84,482.7" transform="translate(14.44 30.83)"/><path class="cls-5" d="M536.16,515.34l27.3-172.18a11.19,11.19,0,0,1,7.33-8.81l120.58-42.63A15.65,15.65,0,0,1,712,308.93l-26.3,165.69a10.67,10.67,0,0,1-6.89,8.35l-121,43.76a6.46,6.46,0,0,1-4.4,0L540,521.81A5.88,5.88,0,0,1,536.16,515.34Z" transform="translate(14.44 30.83)"/><g class="cls-25"><polygon class="cls-26" points="583.3 371.39 744.89 312.43 731.36 330.55 570.26 391.57 583.3 371.39"/><path class="cls-1" d="M565.83,337.85s19.95.72,21.65,11.6-34.72,208-34.72,208L515,535.64l37.1-201.53,13.76,3.74" transform="translate(14.44 30.83)"/></g><path class="cls-19" d="M554.77,597.26l56.29-3a8.08,8.08,0,0,1,8.48,7.47h0a8.07,8.07,0,0,1-7.45,8.65l-72.51,5.4Z" transform="translate(14.44 30.83)"/><path class="cls-19" d="M530.58,597.26l-56.29-3a8.08,8.08,0,0,0-8.48,7.47h0a8.09,8.09,0,0,0,7.45,8.65l72.51,5.4Z" transform="translate(14.44 30.83)"/><path class="cls-19" d="M566.81,613.6l54.8,31.31a9,9,0,0,1,2.9,13.07h0a9,9,0,0,1-11.84,2.65l-70-39.63,10.72-12.77Z" transform="translate(14.44 30.83)"/><path class="cls-19" d="M518.54,613.6l-54.79,31.31a9,9,0,0,0-2.9,13.07h0a9,9,0,0,0,11.84,2.65l70-39.63L532,608.23Z" transform="translate(14.44 30.83)"/><circle class="cls-19" cx="490.02" cy="648.09" r="14.23"/><circle class="cls-19" cx="619.77" cy="648.44" r="14.23"/><circle class="cls-19" cx="628.76" cy="701.14" r="14.23"/><circle class="cls-19" cx="485.01" cy="701.14" r="14.23"/><path class="cls-3" d="M487.25,158.55a247.49,247.49,0,0,0-1.56,24.82c0,11.28,2,25.59,5.25,29.93s12.7,6.75,33.19-2.44c0,0,17.09,0,24.79-9.8s17.37-20.8,15.76-42.72-26.58-31.29-33.17-31.1-19.36,4.57-25.15,4.68-9.45-1-13.78-2.29S485,128,484.71,131.4a27.38,27.38,0,0,0,.48,7s-10.57-4-12.45,4.34S478.72,156.28,487.25,158.55Z" transform="translate(14.44 30.83)"/><g class="cls-27"><path class="cls-4" d="M487.25,158.55a60.34,60.34,0,0,0,8.19.53s6.73,19.21,8.89,19,1.95-2.13,4.54-5.22A8.8,8.8,0,0,1,520,170.9c3.94,2.25,5,7.63,3.83,12.18s-4.35,8.67-11.52,9.48c0,0,1,17,11.79,18.3s26.58,1.34,26.58,1.34,43.7-65.78,42.81-71.33-36.45-33.17-36.45-33.17L473,122.29s-25.54,21.32-25.49,21.8,20.16,25.17,20.16,25.17l19.61-10.71" transform="translate(14.44 30.83)"/></g><path class="cls-4" d="M411.4,544.67s-1.61,10.1,5.18,10.62c8.32.64,12.86-.77,12.86-.77s4.78,14.84,3.11,22.38c-.73,3.29-3.82,7.57-10.58,7.59-8.53,0-43.82-12-49.49-14.79-9.13-4.44-9.36-10.33-9.12-15.37s4.54-12.9,16.33-13.68c8.63-.57,19.71,2.05,22.09,2.05s4-1.25,6.72-.79C412.59,542.62,411.4,544.67,411.4,544.67Z" transform="translate(14.44 30.83)"/><g class="cls-28"><path class="cls-6" d="M363.76,552.34s1.44,5.74,12.64,10,25.86,7.91,32.1,9.35,19.74,4,23.83.38,7.46,14.4,7.46,15.2-33,25.93-38.74,25.93-54.25-51.7-54.25-51.7l17-9.19" transform="translate(14.44 30.83)"/><path class="cls-18" d="M378.2,548.85s3-3.27,14.49-9.36" transform="translate(14.44 30.83)"/><path class="cls-18" d="M388.47,550.91s2.64-3.55,13.47-10.78" transform="translate(14.44 30.83)"/></g><path class="cls-5" d="M249.39,411.53V646.47a3.89,3.89,0,0,0,2.74,3.72l17.53,5.44a4,4,0,0,0,2.87-.22l10.21-5a3.9,3.9,0,0,0,2.19-3.5V411.53Z" transform="translate(14.44 30.83)"/><g class="cls-29"><polygon class="cls-8" points="285.32 449.87 285.32 715.37 350.34 646.6 311.36 419.49 285.32 449.87"/></g><path class="cls-5" d="M141.39,371.49v235a3.88,3.88,0,0,0,2.74,3.71l17.53,5.44a3.86,3.86,0,0,0,2.87-.22l10.21-5a3.89,3.89,0,0,0,2.19-3.49V371.49Z" transform="translate(14.44 30.83)"/><g class="cls-30"><polygon class="cls-8" points="177.32 409.83 177.32 675.34 242.34 606.56 203.36 379.45 177.32 409.83"/></g><path class="cls-5" d="M175.94,310.72l-56.4,20.73a7.5,7.5,0,0,0-4.91,7v20.59a7.49,7.49,0,0,0,5,7.08l148.65,52a7.51,7.51,0,0,0,5.14-.07l70.48-26.83Z" transform="translate(14.44 30.83)"/><g class="cls-31"><path class="cls-5" d="M-283.67,22.28" transform="translate(14.44 30.83)"/><path class="cls-8" d="M115.31,335.38,267.92,388a16.33,16.33,0,0,0,11-.12l270.78-100.1L491.37,426.7l-426.78.51L95.22,326.62l20.09,8.76" transform="translate(14.44 30.83)"/></g><path class="cls-5" d="M660.46,215l209.28,74.11A7.61,7.61,0,0,0,875,289l66.55-25.86a7.61,7.61,0,0,0,4.86-7.1v-18a7.61,7.61,0,0,0-5.11-7.19L732.55,158a7.62,7.62,0,0,0-5.2.06l-67,25.34a7.59,7.59,0,0,0-4.93,7.12v17.27A7.63,7.63,0,0,0,660.46,215Z" transform="translate(14.44 30.83)"/><g class="cls-32"><g class="cls-33"><polyline class="cls-8" points="888.54 290.89 888.54 341.11 624.05 268.6 627.18 212.68 670.67 217.86 883.78 275.75 888.54 290.89"/><path class="cls-1" d="M874.11,260.06v30.75s115.06-27.34,115.06-29.38-18.72-50.05-18.72-50.05l-96.34,48.68" transform="translate(14.44 30.83)"/></g></g></g><g id="Слой_7" data-name="Слой 7"><polygon class="cls-1" points="277.83 304.08 247.02 316.85 247.02 327.06 290.68 343.92 368.04 313.02 368.04 304.08 319.53 288.25 277.83 304.08"/><g class="cls-34"><path class="cls-19" d="M232.59,286l46.29,16.43,74.73-29.19,18.72,5.38s-82.72,90.19-87.15,90.87-100.42-56.42-100.42-56.42L232.59,286" transform="translate(14.44 30.83)"/></g><path class="cls-19" d="M263.39,244.57v30.3S274,279,282.8,278.62s11.57-3.75,11.57-3.75V233.34Z" transform="translate(14.44 30.83)"/><path class="cls-5" d="M167.62,87.74l25.78,170.4a12.14,12.14,0,0,0,16.27,9.54l194.75-73.41a5,5,0,0,0,3.21-5.48L382.38,23.56a6.15,6.15,0,0,0-3.78-4.77l-13.08-5.28a6.13,6.13,0,0,0-4.4-.08L170.75,82.49A4.82,4.82,0,0,0,167.62,87.74Z" transform="translate(14.44 30.83)"/><g class="cls-35"><polygon class="cls-8" points="197.3 121.7 393.04 49.62 381.32 0 182.01 89.36 147.7 124.6 197.3 121.7"/><polyline class="cls-19" points="175.19 113.7 196.72 121.02 225.83 323.75 131.87 285.96 152.81 131.23 181.81 120.11"/></g><polygon class="cls-6" points="214.01 128.74 233.75 278.81 406.74 215.36 384.89 63.83 214.01 128.74"/><g class="cls-36"><line class="cls-37" x1="230.84" y1="135.13" x2="304.04" y2="107.56"/><line class="cls-37" x1="315.47" y1="236.32" x2="388.66" y2="208.74"/></g><polygon class="cls-1" points="248.8 144.11 261.41 240 371.95 199.46 357.99 102.64 248.8 144.11"/></g><g id="Слой_8" data-name="Слой 8"><path class="cls-38" d="M272.49,171.74l-1.07-8.15a7.65,7.65,0,0,0,7.08.64,6.43,6.43,0,0,0,3.54-2.92,7.52,7.52,0,0,0,.77-4.8c-.26-1.89-1-3.15-2.25-3.76a6,6,0,0,0-4.76.16l-2.63,1-.94-7.12,2.43-.91q5.54-2.07,4.81-7.54c-.46-3.42-2.11-4.59-4.94-3.53a11,11,0,0,0-5.15,4.81l-1-7.54a15.45,15.45,0,0,1,6.63-4.84c2.9-1.1,5.28-1,7.16.32s3,3.52,3.45,6.61q1.13,8.26-4.26,12.48l0,.15a5.6,5.6,0,0,1,5.21,1.48,9.86,9.86,0,0,1,2.66,6,16.82,16.82,0,0,1-1.66,10.53,13.67,13.67,0,0,1-7.64,6.46C277,172.32,274.52,172.49,272.49,171.74Z" transform="translate(14.44 30.83)"/><path class="cls-38" d="M297.16,164.15l-5.84-42.39,10.14-3.84c10.22-3.88,16.34,1,18.33,14.82.95,6.64.31,12.49-2,17.51a18.07,18.07,0,0,1-10.43,10.13ZM298.84,127l3.74,26.9,3.23-1.2a10.38,10.38,0,0,0,6.14-6.21,21.41,21.41,0,0,0,1-11.1q-.87-6.08-3.75-8.64t-7.17-1Z" transform="translate(14.44 30.83)"/><polygon class="cls-8" points="785.72 188.83 785.72 240.58 829.64 254.58 842.23 249.77 842.23 194.62 801.18 182.34 785.72 188.83"/><g class="cls-39"><path class="cls-1" d="M815.37,172l-.18,57.21,33.37-3.08S836,168.17,836.31,166.15s-1.7-22.11-1.7-22.11Z" transform="translate(14.44 30.83)"/><polyline class="cls-5" points="785.72 188.83 829.81 202.79 842.23 194.62 846.49 177.94 783.68 167.21 780.96 191.9 785.72 188.83"/><path class="cls-14" d="M805.69,189.85a11.22,11.22,0,0,1-10.31,13.06c-6.71.53-13.52-4.39-15.22-11.36-1.81-7.41,2.82-14.1,10.36-14.5S804.72,182.57,805.69,189.85Z" transform="translate(14.44 30.83)"/></g><path class="cls-8" d="M888.84,609.72H869.79A25.69,25.69,0,0,1,844.1,584l-2.76-47.5h76.23l-3,47.5A25.69,25.69,0,0,1,888.84,609.72Z" transform="translate(14.44 30.83)"/><path class="cls-19" d="M841.14,532.29H946.92a0,0,0,0,1,0,0v18.3a35.19,35.19,0,0,1-35.19,35.19h-35.4a35.19,35.19,0,0,1-35.19-35.19v-18.3A0,0,0,0,1,841.14,532.29Z"/><ellipse class="cls-5" cx="894.08" cy="536.06" rx="53.95" ry="18.41"/><ellipse class="cls-19" cx="893.15" cy="537.22" rx="37.38" ry="11.36"/><path class="cls-23" d="M872,465.59c-9-18.47-24.71-27.95-42.43-22.71s-20.47,29.95-7.24,36.19,26.46-12,33.44-15.73S872,465.59,872,465.59Z" transform="translate(14.44 30.83)"/><path class="cls-19" d="M880.73,514.75c0-2.23-.13-4.45-.21-6.68q-.22-6.66-.47-13.33c-.3-8.13-1.18-16.11-4.55-23.61a36.57,36.57,0,0,0-14.25-16.42,30.07,30.07,0,0,0-7.49-3.24,17.54,17.54,0,0,0-8.74-4.8,35.77,35.77,0,0,0-12.47-.31c-.15,0-.14.25,0,.23a30.07,30.07,0,0,1,11.79.84,25.14,25.14,0,0,1,4.75,1.85,22.82,22.82,0,0,1,2.75,1.74,25.53,25.53,0,0,0-10.83.11,24.7,24.7,0,0,0-3.76,1.24,10.94,10.94,0,0,0-3-.25,17.77,17.77,0,0,0-3.84.54,29.21,29.21,0,0,0-7.29,3.19c-.13.07,0,.27.13.2a26.91,26.91,0,0,1,7.11-2.68,22.6,22.6,0,0,1,3.66-.54,19.61,19.61,0,0,1,2,0,23.55,23.55,0,0,0-11.46,11.41c-.06.14.15.26.21.12,2.66-6,8.32-10.11,14.6-11.71.39-.1.79-.15,1.18-.23-.13.58-.11,1.23-.18,1.79-.12.9-.27,1.79-.45,2.68a45.9,45.9,0,0,1-1.45,5.41,43.29,43.29,0,0,1-2.14,5.24,25.28,25.28,0,0,1-3,5.06.12.12,0,1,0,.19.13c1.06-1.66,2.3-3.2,3.27-4.93a37.81,37.81,0,0,0,2.41-5.16,35.58,35.58,0,0,0,1.58-5.53c.19-1,.34-2,.46-3a6.61,6.61,0,0,0,.11-1.83,24.16,24.16,0,0,1,6.3-.13c-.79,4.4-1.64,9-4.1,12.82-.09.13.13.25.2.12a52.36,52.36,0,0,0,3-6.31,23.72,23.72,0,0,0,1.51-6.56,29.07,29.07,0,0,1,10.41,3.49,34.37,34.37,0,0,1,13.85,15.15c3.33,6.84,4.66,14.19,5.13,21.72.59,9.44.72,6.73,1.66,16.14.06.61,1.29,2.8,1.4,2.1C881.21,508.75,880.78,516.85,880.73,514.75Z" transform="translate(14.44 30.83)"/><path class="cls-4" d="M860,453.23a10.18,10.18,0,0,0-2-1.89c-.74-.61-1.49-1.2-2.28-1.73a17,17,0,0,0-5.11-2.37.12.12,0,0,0-.06.23,13.49,13.49,0,0,1,5,2.47c.75.55,1.47,1.15,2.18,1.76a13.16,13.16,0,0,0,2.06,1.75C859.89,453.52,860.06,453.36,860,453.23Z" transform="translate(14.44 30.83)"/><path class="cls-4" d="M831.29,459.92a55.63,55.63,0,0,0-4.12,5.45,32.67,32.67,0,0,0-3.06,6.08c0,.06.07.1.1,0a72.89,72.89,0,0,1,7.25-11.41C831.56,460,831.39,459.8,831.29,459.92Z" transform="translate(14.44 30.83)"/><path class="cls-4" d="M850.62,458.09a12.9,12.9,0,0,1-1,3.34,22.78,22.78,0,0,1-1.71,3,.06.06,0,0,0,.1.08,12,12,0,0,0,2.85-6.32C850.87,458,850.65,457.94,850.62,458.09Z" transform="translate(14.44 30.83)"/><path class="cls-14" d="M879.48,466s12.72-16,37.28-10.32c23.34,5.39,34.11,48.19,10.52,53.31s-19.42-34.49-28-41.21C893,462.89,883.89,464,879.48,466Z" transform="translate(14.44 30.83)"/><path class="cls-19" d="M935.72,479.1a46.46,46.46,0,0,0-5.06-3.88,21.4,21.4,0,0,0-5.39-2.69,31,31,0,0,0-10.62-10l.73-.05c1.3,0,2.6-.05,3.9,0a21.84,21.84,0,0,1,7.58,1.88.12.12,0,0,0,.1-.21,34.42,34.42,0,0,0-7.57-2.28,21.3,21.3,0,0,0-3.83-.33c-.69,0-1.38.06-2.06.12-.13,0-.26,0-.4,0a33.18,33.18,0,0,0-7.08-2.6l.69-.18a32.11,32.11,0,0,1,3.64-.6,28.63,28.63,0,0,1,7.34.11c.15,0,.2-.21,0-.23a46.1,46.1,0,0,0-7.43-.3,31.81,31.81,0,0,0-6.18.8,31.69,31.69,0,0,0-4.47-.51c-8.57-.36-17.9,2.84-23.17,9.87s-6.3,16.45-7.24,24.94C868,504.83,869,519.36,871,507.62c3-17.59-1.68.86-1.65.19.32-10.09.73.61,1.69-9.45.45-4.66,1-9.33,1.72-13.94a41,41,0,0,1,3.38-11.49,21.09,21.09,0,0,1,8.29-8.91,28.13,28.13,0,0,1,11.74-3.61,31.67,31.67,0,0,1,11,1,6.92,6.92,0,0,0-.06,2.18,12.24,12.24,0,0,0,.53,2.68,14.75,14.75,0,0,0,1,2.38c.45.84,1,1.6,1.53,2.4.08.13.29,0,.19-.13a11.21,11.21,0,0,1-1.9-4.84,19.29,19.29,0,0,1-.29-2.51c0-.63,0-1.27,0-1.89a32.24,32.24,0,0,1,10.72,5.66c.6.47,1.17,1,1.74,1.5a11.68,11.68,0,0,0-2.08,2.56,24.74,24.74,0,0,0-2.19,3.89,33.05,33.05,0,0,0-2.27,8.54c0,.15.21.19.23,0a24.61,24.61,0,0,1,2.8-8.1,32,32,0,0,1,2.17-3.59c.42-.59.84-1.18,1.29-1.74.24-.31.5-.62.73-.94a33.74,33.74,0,0,1,7,9.8l0,0a16.87,16.87,0,0,0-2.88,4.14,39.9,39.9,0,0,0-2.3,4.91,82.72,82.72,0,0,0-2.93,10c0,.14.21.19.24,0a41.77,41.77,0,0,1,3.48-9.86c.73-1.54,1.51-3.06,2.32-4.55a41.33,41.33,0,0,0,2.31-4.3,31.47,31.47,0,0,1,2.8,11.38.12.12,0,0,0,.23,0A39.53,39.53,0,0,0,926,473.65c1.5.64,3,1.26,4.46,2a24.83,24.83,0,0,1,5.1,3.59C935.68,479.38,935.84,479.19,935.72,479.1Z" transform="translate(14.44 30.83)"/><path class="cls-4" d="M917.71,480c-.73,2.43-1.66,4.78-2.32,7.23a27.56,27.56,0,0,0-1.09,7.22c0,.06.11.07.12,0a69.76,69.76,0,0,1,3.52-14.38C918,479.92,917.76,479.84,917.71,480Z" transform="translate(14.44 30.83)"/><path class="cls-4" d="M933.27,474a14.09,14.09,0,0,0-3.25-2.33,24.79,24.79,0,0,0-3.77-1.33c-.14,0-.19.2,0,.23a14.85,14.85,0,0,1,3.62,1.49,27.65,27.65,0,0,1,3.34,2.05A.07.07,0,1,0,933.27,474Z" transform="translate(14.44 30.83)"/><path class="cls-23" d="M891.57,444.69s2.35-28.73,23.71-38c17.83-7.77,28,12.27,15.43,24.53C920.51,441.11,904.16,436.63,891.57,444.69Z" transform="translate(14.44 30.83)"/><path class="cls-19" d="M926.76,412.22a92.52,92.52,0,0,0-9.5,4.49,72.48,72.48,0,0,0-7.37,4.9c.35-.73.66-1.49,1-2.2.56-1.11,1.15-2.19,1.81-3.24a30.53,30.53,0,0,1,4.71-6c.11-.1-.07-.27-.17-.16a47.6,47.6,0,0,0-5,5.76,35.27,35.27,0,0,0-2,3.25,13.14,13.14,0,0,0-1.44,3.31l-.23.17a70.77,70.77,0,0,0-10.2,10c.06-.28.12-.56.19-.82q.6-2.1,1.29-4.17a35.6,35.6,0,0,1,3.86-8.38c.08-.13-.13-.25-.2-.12a66.8,66.8,0,0,0-4.47,8.17,31,31,0,0,0-1.48,4.25,17.71,17.71,0,0,0-.69,2.89c-.93,1.17-1.85,2.36-2.71,3.59C885,451,880.43,466.77,879.32,482.56a139.19,139.19,0,0,0-.23,14.15,87.77,87.77,0,0,0,1.25,14.21c.06.29.52.2.51-.09-.1-4.15-.53-8.28-.61-12.43a123.49,123.49,0,0,1,.4-12.47,116.29,116.29,0,0,1,4.66-24.45,87.12,87.12,0,0,1,10.86-23c.9-.18,1.79-.43,2.67-.66,1.07-.27,2.14-.54,3.2-.84a32.12,32.12,0,0,0,6-2.18c.13-.07,0-.28-.12-.2a19.34,19.34,0,0,1-6,2.08c-1.67.33-3.41.55-5.08.93,1.55-2.25,3.2-4.44,5-6.52a37.08,37.08,0,0,0,12.15-.91,48.17,48.17,0,0,0,6.22-1.94c2.14-.82,4.17-1.88,6.28-2.76.15-.07,0-.3-.1-.21-3.62,2.2-8.17,3.32-12.32,4a75.33,75.33,0,0,1-11.52.95c1.52-1.74,3.09-3.44,4.76-5,5.61-5.34,12.27-10.25,19.66-12.81C927,412.39,926.9,412.16,926.76,412.22Z" transform="translate(14.44 30.83)"/><path class="cls-4" d="M909.38,412.31a32.38,32.38,0,0,0-2.62,3.83,21,21,0,0,0-1.88,4.45,0,0,0,0,0,.09,0c.71-1.41,1.31-2.87,2-4.27a21.84,21.84,0,0,1,2.55-3.88C909.65,412.35,909.48,412.19,909.38,412.31Z" transform="translate(14.44 30.83)"/><path class="cls-4" d="M929.24,421.87a22.15,22.15,0,0,1-4.38,1.83,40.13,40.13,0,0,1-4.46,1.19c-.07,0,0,.14,0,.13a22.16,22.16,0,0,0,4.62-1,39.83,39.83,0,0,0,4.32-1.94C929.5,422,929.37,421.79,929.24,421.87Z" transform="translate(14.44 30.83)"/><path class="cls-14" d="M875,439.52c-.13,1.24-3.23-10.43-21.29-20.79-16.39-9.41-36-33.88-19.89-49.34C846.77,356.91,881,384.11,875,439.52Z" transform="translate(14.44 30.83)"/><path class="cls-19" d="M887.4,506.43a321.81,321.81,0,0,0-2.86-36.31,163.89,163.89,0,0,0-7.63-32.5c-1.35-3.79-2.88-7.53-4.55-11.21a25.67,25.67,0,0,0-.07-4.3c-.09-1.83-.26-3.67-.43-5.5s-.35-3.67-.57-5.5-.61-3.65-.68-5.47a.12.12,0,1,0-.23,0,39.12,39.12,0,0,1,.65,5.82c.13,1.77.24,3.54.29,5.31s0,3.56,0,5.34c0,.64,0,1.32-.06,2-1.7-3.59-3.52-7.12-5.49-10.56,1.22-7.49-.36-15.31-1.89-22.63,0-.15-.26-.08-.23.07a63.57,63.57,0,0,1,1.19,11.6c.07,3.07-.07,6.15-.08,9.22l-1.31-2.2c-2.34-3.82-4.85-7.57-7.5-11.21a17.65,17.65,0,0,0-.18-5.33,40.25,40.25,0,0,0-1.31-5.83q-.85-2.86-2-5.64c-.78-1.9-1.82-3.69-2.57-5.6a.12.12,0,1,0-.22.1,27.19,27.19,0,0,1,2.26,5.66,50,50,0,0,1,1.48,5.62q.57,2.85,1,5.73c.18,1.27.29,2.58.51,3.87a138.72,138.72,0,0,0-12.64-14.72c-.11-.11-.26.06-.17.17a166.17,166.17,0,0,1,18.36,25c.2.33.39.67.58,1-1-.62-2.13-1.12-3.07-1.64-1.75-1-3.5-1.94-5.26-2.89s-3.42-1.85-5.12-2.8c-.88-.48-1.74-1-2.63-1.44a21.71,21.71,0,0,1-3.06-1.7c-.14-.1-.28.11-.14.19,1.74.95,3.28,2.37,5,3.44s3.41,2.12,5.16,3.09c3.21,1.8,6.7,3.08,9.86,4.94,2.19,3.83,4.21,7.77,6.07,11.78q-2.88-1.85-5.86-3.51c-1.28-.72-2.56-1.43-3.86-2.11a18.66,18.66,0,0,1-3.64-2.2c-.11-.09-.27.07-.16.17a33.8,33.8,0,0,0,6.94,4.83c2.32,1.36,4.66,2.67,7.07,3.85q2.9,6.35,5.23,12.92c7.6,21.52,10.39,44.37,11.72,67.05.4,6.77,0,15.46-.19,8.69-.32-12.61.59-6.76.6,0,0,.2.09,3.74.12,3.53.81-6,1.44,2.51,1.7-3.53S887.54,512.58,887.4,506.43Z" transform="translate(14.44 30.83)"/><path class="cls-4" d="M854.59,409a87.88,87.88,0,0,1-9.59-5,101.55,101.55,0,0,1-9.11-5.79s-.11.05-.06.09a77.81,77.81,0,0,0,8.74,6.12,90.11,90.11,0,0,0,9.91,4.75C854.62,409.27,854.73,409.06,854.59,409Z" transform="translate(14.44 30.83)"/><path class="cls-4" d="M859.83,384.67c-.27-1.05-.6-2.08-1-3.1,0,0,.07-.07,0-.12-.23-.58-.47-1.16-.71-1.74,0-.08-.05-.15-.08-.21l-.14-.33s-.07,0-.06,0c.07.2.12.4.18.6a2.07,2.07,0,0,0,.1.33,87,87,0,0,1,2.68,12.26c0,.13.21.13.21,0A41.92,41.92,0,0,0,859.83,384.67Z" transform="translate(14.44 30.83)"/></g></svg>